<?xml version="1.0" standalone="no"?>
<!DOCTYPE svg PUBLIC "-//W3C//DTD SVG 20010904//EN"
 "http://www.w3.org/TR/2001/REC-SVG-20010904/DTD/svg10.dtd">
<svg version="1.0" xmlns="http://www.w3.org/2000/svg"
 width="700.000000pt" height="700.000000pt" viewBox="0 0 700.000000 700.000000"
 preserveAspectRatio="xMidYMid meet">
<metadata>
Created by potrace 1.11, written by Peter Selinger 2001-2013
</metadata>
<g transform="translate(0.000000,700.000000) scale(0.100000,-0.100000)"
fill="#000000" stroke="none">
<path d="M3310 6904 c-91 -53 -239 -139 -330 -192 -261 -150 -485 -279 -615
-355 -66 -38 -145 -83 -175 -100 -30 -16 -60 -34 -67 -39 -7 -5 -27 -18 -45
-27 -113 -61 -150 -85 -164 -106 -12 -19 -14 -145 -15 -925 l0 -904 23 -23
c20 -19 194 -125 283 -171 17 -8 32 -18 35 -21 3 -3 30 -19 60 -35 44 -24 155
-87 270 -155 8 -5 125 -73 260 -150 135 -78 322 -185 415 -240 l170 -98 2
-124 c1 -72 7 -133 14 -146 26 -48 112 -48 138 0 7 13 13 73 14 147 l2 124
220 126 c121 70 308 177 415 240 107 62 211 121 230 132 117 67 450 259 530
306 52 31 100 63 107 71 10 12 12 226 13 923 l0 907 -22 25 c-13 13 -43 35
-68 49 -25 13 -117 66 -205 117 -88 51 -178 103 -200 115 -22 13 -155 89 -295
170 -140 81 -299 173 -353 204 -54 31 -113 64 -130 75 -235 137 -296 169 -322
172 -23 3 -66 -17 -195 -92z"/>
<path d="M3445 2955 c-75 -74 35 -182 112 -111 22 21 25 30 20 63 -12 70 -84
97 -132 48z"/>
<path d="M3454 2688 c-20 -11 -182 -103 -358 -205 -177 -102 -337 -194 -356
-205 -336 -186 -376 -219 -343 -286 8 -17 27 -38 42 -45 23 -12 367 -210 561
-323 41 -24 152 -88 245 -142 l170 -98 1 -148 c2 -131 4 -151 21 -175 16 -21
28 -26 63 -26 35 0 47 5 62 26 18 24 20 43 20 173 l0 146 57 34 c31 19 72 43
91 54 19 11 132 76 250 144 118 68 303 175 411 237 211 122 233 142 218 197
-10 36 -26 47 -239 169 -74 43 -150 86 -167 96 -18 11 -48 27 -66 38 -113 63
-564 325 -572 331 -5 4 -24 12 -42 18 -26 9 -38 7 -69 -10z"/>
<path d="M3485 952 c-56 -11 -86 -89 -49 -126 40 -41 82 -44 120 -9 56 52 4
150 -71 135z"/>
<path d="M3417 719 c-94 -22 -202 -108 -242 -193 -24 -52 -44 -138 -39 -172
11 -77 18 -105 39 -149 38 -82 123 -157 210 -185 67 -22 166 -21 232 2 32 12
60 25 61 29 2 5 9 9 16 9 33 0 119 106 147 182 68 181 -27 386 -214 463 -46
19 -157 26 -210 14z"/>
</g>
</svg>
