<svg height="475pt" viewBox="0 0 475.54075 475" width="475pt" xmlns="http://www.w3.org/2000/svg"><path d="m413.839844 145.46875h-8.097656c-31.101563 0-56.402344-25.296875-56.402344-56.398438v-32.800781c0-30.898437-25.097656-56-56-56h-104.699219c-16.5 0-29.898437 13.402344-29.898437 29.902344v78.597656c0 4.199219 3.398437 7.601563 7.597656 7.601563 4.199218 0 7.601562-3.402344 7.601562-7.601563v-78.5c0-8.097656 6.597656-14.699219 14.699219-14.699219h104.699219c22.5 0 40.800781 18.300782 40.800781 40.800782v32.699218c0 39.5 32.101563 71.601563 71.601563 71.601563h8.097656c4.199218 0 7.601562-3.402344 7.601562-7.601563 0-4.199218-3.402344-7.601562-7.601562-7.601562zm0 0" fill="#5a5f64"/><g fill="#f44545"><path d="m467.941406 145.46875h-27.5c-4.199218 0-7.601562 3.402344-7.601562 7.601562 0 4.199219 3.402344 7.601563 7.601562 7.601563h27.5c4.199219 0 7.597656-3.402344 7.597656-7.601563 0-4.199218-3.398437-7.601562-7.597656-7.601562zm0 0"/><path d="m430.640625 138.871094c1.601563 0 3.199219-.5 4.601563-1.5l26.199218-19.902344c3.300782-2.5 4-7.296875 1.5-10.597656-2.5-3.300782-7.300781-4-10.601562-1.5l-26.199219 19.898437c-3.300781 2.5-4 7.300781-1.5 10.601563 1.398437 1.898437 3.699219 3 6 3zm0 0"/><path d="m399.539062 130.570312c.703126 3.601563 3.902344 6.101563 7.402344 6.101563.5 0 1 0 1.5-.101563 4.097656-.800781 6.800782-4.800781 6-8.898437l-6.402344-32.300781c-.796874-4.101563-4.796874-6.800782-8.898437-6-4.101563.800781-6.800781 4.800781-6 8.898437zm0 0"/><path d="m461.441406 188.671875-26.199218-19.902344c-3.300782-2.5-8.101563-1.898437-10.601563 1.5-2.5 3.300781-1.898437 8.101563 1.5 10.601563l26.199219 19.898437c1.402344 1 3 1.5 4.601562 1.5 2.300782 0 4.597656-1 6-3 2.5-3.300781 1.800782-8.097656-1.5-10.597656zm0 0"/><path d="m408.441406 169.46875c-4.101562-.796875-8.101562 1.902344-8.902344 6l-6.398437 32.300781c-.800781 4.101563 1.898437 8.101563 6 8.902344.5.097656 1 .097656 1.5.097656 3.5 0 6.699219-2.5 7.398437-6.097656l6.402344-32.300781c.800782-4.101563-1.902344-8.101563-6-8.902344zm0 0"/></g><path d="m241.839844 104.46875v125.902344c0 8.300781-6.699219 15-15 15h-121c-8.300782 0-15-6.699219-15-15v-125.902344c0-8.296875 6.699218-15 15-15h121c6.101562 0 11.402344 3.703125 13.699218 9 .902344 1.902344 1.300782 3.902344 1.300782 6zm0 0" fill="#7d8287"/><path d="m241.839844 104.46875v125.902344c0 8.300781-6.699219 15-15 15h-99.800782c-.898437-2.101563-1.5-4.5-1.5-6.902344v-145.597656c0-1.199219.101563-2.300782.300782-3.402344h100.902344c6.097656 0 11.398437 3.703125 13.699218 9 1 1.902344 1.398438 3.902344 1.398438 6zm0 0" fill="#919196"/><path d="m322.441406 366.871094c-2.300781 6.300781-5 12.300781-8 18.199218-37.800781 74-125.902344 109.699219-205.800781 80.101563-86.101563-31.800781-130.101563-127.5-98.300781-213.703125 9.402344-25.296875 24.199218-47 42.699218-64.199219 44.5-41.300781 110.101563-56.699219 171-34.097656 86.203126 31.898437 130.203126 127.597656 98.402344 213.699219zm0 0" fill="#4b5055"/><path d="m322.441406 366.871094c-2.300781 6.300781-5 12.300781-8 18.199218-44.5 41.300782-110.101562 56.699219-171 34.101563-86.199218-31.800781-130.199218-127.5-98.300781-213.703125 2.300781-6.296875 5-12.296875 8-18.199219 44.5-41.300781 110.101563-56.699219 171-34.097656 86.101563 31.898437 130.101563 127.597656 98.300781 213.699219zm0 0" fill="#5a5f64"/></svg>