<?xml version="1.0" encoding="iso-8859-1"?>
<!-- Generator: Adobe Illustrator 16.0.0, SVG Export Plug-In . SVG Version: 6.00 Build 0)  -->
<!DOCTYPE svg PUBLIC "-//W3C//DTD SVG 1.1//EN" "http://www.w3.org/Graphics/SVG/1.1/DTD/svg11.dtd">
<svg xmlns="http://www.w3.org/2000/svg" xmlns:xlink="http://www.w3.org/1999/xlink" version="1.1" id="Capa_1" x="0px" y="0px" width="512px" height="512px" viewBox="0 0 53.938 53.938" style="enable-background:new 0 0 53.938 53.938;" xml:space="preserve">
<g>
	<g>
		<g>
			<path d="M26.969,53.938C12.099,53.938,0,41.839,0,26.969C0,12.099,12.099,0,26.969,0C41.84,0,53.938,12.099,53.938,26.969     C53.938,41.839,41.84,53.938,26.969,53.938z M26.969,3.946c-12.693,0-23.021,10.329-23.021,23.023     c0,12.693,10.328,23.021,23.021,23.021c12.695,0,23.023-10.328,23.023-23.021C49.992,14.275,39.664,3.946,26.969,3.946z" fill="#FFFFFF"/>
		</g>
		<g>
			<path d="M15.217,40.08c-0.492,0-0.982-0.182-1.366-0.55c-0.786-0.753-0.812-2.003-0.058-2.787     c3.611-3.767,8.472-5.839,13.686-5.839c4.628,0,9.085,1.686,12.55,4.748c0.816,0.721,0.894,1.967,0.172,2.783     c-0.723,0.818-1.969,0.895-2.784,0.174c-2.743-2.424-6.271-3.758-9.938-3.758c-4.129,0-7.979,1.643-10.838,4.619     C16.254,39.877,15.737,40.08,15.217,40.08z" fill="#FFFFFF"/>
		</g>
		<g>
			<g>
				<path d="M23.11,26.338h-6.533c-1.09,0-1.973-0.884-1.973-1.974c0-1.088,0.883-1.973,1.973-1.973h6.533      c1.091,0,1.975,0.885,1.975,1.973C25.084,25.454,24.2,26.338,23.11,26.338z" fill="#FFFFFF"/>
			</g>
			<g>
				<path d="M19.843,29.605c-1.091,0-1.974-0.886-1.974-1.975v-6.533c0-1.09,0.883-1.974,1.974-1.974      c1.09,0,1.974,0.884,1.974,1.974v6.533C21.817,28.721,20.933,29.605,19.843,29.605z" fill="#FFFFFF"/>
			</g>
			<g>
				<path d="M37.361,26.338H30.83c-1.092,0-1.975-0.884-1.975-1.974c0-1.088,0.883-1.973,1.975-1.973h6.531      c1.09,0,1.976,0.885,1.976,1.973C39.336,25.454,38.451,26.338,37.361,26.338z" fill="#FFFFFF"/>
			</g>
			<g>
				<path d="M34.095,29.605c-1.09,0-1.974-0.886-1.974-1.975v-6.533c0-1.09,0.884-1.974,1.974-1.974      c1.091,0,1.974,0.884,1.974,1.974v6.533C36.068,28.721,35.186,29.605,34.095,29.605z" fill="#FFFFFF"/>
			</g>
		</g>
	</g>
</g>
<g>
</g>
<g>
</g>
<g>
</g>
<g>
</g>
<g>
</g>
<g>
</g>
<g>
</g>
<g>
</g>
<g>
</g>
<g>
</g>
<g>
</g>
<g>
</g>
<g>
</g>
<g>
</g>
<g>
</g>
</svg>
