<svg height="511pt" viewBox="-44 0 511 511.99996" width="511pt" xmlns="http://www.w3.org/2000/svg"><path d="m88.464844 398.6875c-12.800782-17.558594-20.953125-38.25-23.46875-59.984375" fill="#5a5a5a"/><path d="m323.011719 204.382812 18.859375-52.195312c4.132812-11.445312-1.792969-24.074219-13.234375-28.207031l-106.152344-38.351563c-11.441406-4.132812-24.070313 1.789063-28.207031 13.234375l-16.546875 45.804688c-69.75 4.558593-133.484375 50.03125-157.632813 120.699219-31.683594 92.730468 18.015625 194.480468 110.585938 226.632812 92.292968 32.058594 193.464844-15.996094 226.757812-108.148438 23.039063-63.769531 7.582032-132.066406-34.429687-179.46875zm0 0" fill="#5a5a5a"/><path d="m271.65625 325.667969c0 42.140625-34.164062 76.304687-76.308594 76.304687-42.140625 0-76.304687-34.164062-76.304687-76.304687 0-42.144531 34.164062-76.308594 76.304687-76.308594 42.144532 0 76.308594 34.164063 76.308594 76.308594zm0 0" fill="#cec5c2"/><path d="m351.300781 155.59375c6.003907-16.625-2.632812-35.035156-19.257812-41.042969l-41.832031-15.113281 9.132812-25.273438c2.882812-7.984374 8.703125-14.367187 16.390625-17.972656 7.683594-3.605468 16.3125-4 24.296875-1.117187 5.207031 1.882812 10.953125-.816407 12.835938-6.023438 1.882812-5.207031-.816407-10.953125-6.023438-12.835937-13.019531-4.707032-27.09375-4.058594-39.628906 1.824218-12.53125 5.878907-22.027344 16.289063-26.730469 29.3125l-9.128906 25.273438-45.464844-16.425781c-16.625-6.003907-35.035156 2.632812-41.042969 19.257812l-14.359375 39.75c-73.523437 7.355469-135.839843 56.570313-159.875 126.917969-33.480469 97.980469 18.90625 205.351562 116.78125 239.347656 20.246094 7.03125 41.167969 10.527344 62.023438 10.527344 27.726562 0 55.332031-6.179688 81.082031-18.445312 45.148438-21.507813 79.375-59.257813 96.371094-106.296876 22.828125-63.1875 10.355468-133.492187-32.445313-184.964843zm-3.289062 224.851562c-24.714844 68.40625-90.003907 111.359376-159.191407 111.355469-18.234374 0-36.746093-2.984375-54.847656-9.273437-87.480468-30.382813-134.308594-126.347656-104.386718-213.917969 22.125-64.753906 80.53125-109.476563 148.796874-113.9375 3.976563-.261719 7.421876-2.851563 8.777344-6.601563l16.546875-45.800781c1.765625-4.882812 6.386719-7.925781 11.300781-7.925781 1.351563 0 2.726563.230469 4.066407.714844l106.152343 38.351562c3.015626 1.089844 5.429688 3.289063 6.789063 6.191406 1.363281 2.902344 1.511719 6.160157.421875 9.175782l-18.855469 52.199218c-1.25 3.449219-.507812 7.308594 1.925781 10.054688 41.0625 46.332031 53.519532 111.25 32.503907 169.414062zm0 0"/><path d="m412 51.199219-27.601562-6.3125c-5.398438-1.242188-10.773438 2.136719-12.007813 7.535156s2.140625 10.773437 7.539063 12.007813l27.597656 6.316406c.753906.171875 1.503906.253906 2.246094.253906 4.570312 0 8.699218-3.148438 9.761718-7.792969 1.238282-5.398437-2.136718-10.773437-7.535156-12.007812zm0 0"/><path d="m386.171875 29.894531c1.15625 0 2.335937-.199219 3.480469-.625l26.550781-9.839843c5.191406-1.925782 7.839844-7.695313 5.914063-12.886719-1.921876-5.191407-7.691407-7.839844-12.882813-5.914063l-26.550781 9.839844c-5.191406 1.921875-7.839844 7.691406-5.914063 12.882812 1.496094 4.042969 5.328125 6.542969 9.402344 6.542969zm0 0"/><path d="m377.9375 82.800781c-3.839844-3.988281-10.1875-4.109375-14.175781-.273437-3.992188 3.839844-4.113281 10.1875-.273438 14.179687l19.628907 20.402344c1.96875 2.046875 4.59375 3.074219 7.226562 3.074219 2.5 0 5.003906-.929688 6.949219-2.796875 3.988281-3.839844 4.113281-10.1875.273437-14.179688zm0 0"/><path d="m74.953125 337.546875c-.636719-5.5-5.609375-9.433594-11.109375-8.804687-5.5.636718-9.445312 5.613281-8.808594 11.113281 2.703125 23.332031 11.460938 45.71875 25.328125 64.738281 1.960938 2.691406 5.011719 4.117188 8.109375 4.117188 2.046875 0 4.117188-.625 5.898438-1.921876 4.472656-3.265624 5.457031-9.535156 2.195312-14.007812-11.832031-16.230469-19.304687-35.332031-21.613281-55.234375zm0 0"/><path d="m62.671875 308.394531c1.25 0 2.523437-.238281 3.753906-.734375 5.132813-2.074218 7.613281-7.917968 5.539063-13.050781l-.160156-.398437c-2.078126-5.132813-7.921876-7.613282-13.054688-5.539063s-7.613281 7.917969-5.539062 13.050781l.164062.398438c1.578125 3.902344 5.332031 6.273437 9.296875 6.273437zm0 0"/><path d="m195.347656 239.332031c-47.601562 0-86.332031 38.730469-86.332031 86.335938 0 47.601562 38.730469 86.332031 86.332031 86.332031 47.605469 0 86.335938-38.730469 86.335938-86.332031 0-47.605469-38.730469-86.335938-86.335938-86.335938zm0 152.617188c-36.546875 0-66.28125-29.734375-66.28125-66.28125 0-36.550781 29.734375-66.28125 66.28125-66.28125 36.550782 0 66.285156 29.730469 66.285156 66.28125 0 36.546875-29.734374 66.28125-66.285156 66.28125zm0 0"/></svg>